<svg width="2749" height="1024" xmlns="http://www.w3.org/2000/svg" xmlns:xlink="http://www.w3.org/1999/xlink" xml:space="preserve" overflow="hidden"><g transform="translate(-799 -558)"><path d="M832 1244C816.536 1244 804 1242.96 804 1241.67L804 897.333C804 896.045 816.536 895 832 895Z" fill="#FFFFFF" fill-rule="evenodd"/><path d="M832 1244C816.536 1244 804 1242.96 804 1241.67L804 897.333C804 896.045 816.536 895 832 895" stroke="#000000" stroke-width="10.3125" stroke-miterlimit="8" fill="none" fill-rule="evenodd"/><path d="M1530.93 933.674 1530.93 1207.2 3460.18 1207.2 3460.18 933.674ZM936.137 817.505 936.137 817.506 936.137 1321.96 936.137 1321.96ZM1059.91 562.5 1032.4 633.527 1034.12 643.837 1530.93 643.837 1530.93 895.602 3460.18 895.602 3460.18 636.695 3510.12 636.695 3510.12 895.602 3544.5 895.602 3544.5 933.674 3510.12 933.674 3510.12 1207.2 3544.5 1207.2 3544.5 1245.28 3510.12 1245.28 3510.12 1501.89 3460.18 1501.89 3460.18 1245.28 1530.93 1245.28 1530.93 1492.73 1030.36 1492.73 1057.62 1577.5 1023.15 1571.57 991.146 1509.32 993.902 1492.73 942.943 1492.73 942.079 1495.5 928.648 1489.41 917.723 1506.47 908.493 1504.22 866.958 1490.71 830.037 1459.17 818.5 1423.13 820.807 1387.09 825.423 1369.07 831.186 1375.7 830.119 1370.64 826.118 1360.98 826.118 785.892 828.498 780.149 832.581 764.385 825.486 773.29 820.902 753.751 818.61 714.673 830.07 675.596 866.743 641.403 908 626.748 917.168 624.306 928.629 643.845 925.35 647.96 934.395 643.588 936.137 648.343 936.137 643.837 1022.66 643.837 1002.61 638.109 998.023 615.197 1027.82 567.082Z" stroke="#042433" stroke-width="6.875" stroke-miterlimit="8" fill="#FFFFFF" fill-rule="evenodd"/>
<rect id="Axle1Right" x="3114.5" y="724.5" width="48.0002" height="171" stroke="#042433" stroke-width="6.875" stroke-miterlimit="8" fill="none"/>
<rect id="Axle2Right" x="2684.5" y="724.5" width="48.0002" height="171" stroke="#042433" stroke-width="6.875" stroke-miterlimit="8" fill="none"/>
<rect id="Axel2-left" x="2684.5" y="1244.5" width="48.0002" height="171" stroke="#042433" stroke-width="6.875" stroke-miterlimit="8" fill="none"/>
<rect id="Axel1Left" x="3114.5" y="1244.5" width="48.0002" height="171" stroke="#042433" stroke-width="6.875" stroke-miterlimit="8" fill="none"/>

</g></svg>