<svg width="2233" height="865" xmlns="http://www.w3.org/2000/svg" xmlns:xlink="http://www.w3.org/1999/xlink" xml:space="preserve" overflow="hidden"><g transform="translate(-1109 -635)"><path d="M2526.5 657.833C2526.5 647.156 2535.16 638.5 2545.83 638.5L2897.17 638.5C2907.84 638.5 2916.5 647.156 2916.5 657.833L2916.5 735.166C2916.5 745.844 2907.84 754.5 2897.17 754.5L2545.83 754.5C2535.16 754.5 2526.5 745.844 2526.5 735.166Z" stroke="#042433" stroke-width="6.875" stroke-miterlimit="8" fill="none" fill-rule="evenodd"/><path d="M2526.5 787.667C2526.5 777.081 2535.08 768.5 2545.67 768.5L2897.33 768.5C2907.92 768.5 2916.5 777.081 2916.5 787.667L2916.5 864.333C2916.5 874.919 2907.92 883.5 2897.33 883.5L2545.67 883.5C2535.08 883.5 2526.5 874.919 2526.5 864.333Z" stroke="#042433" stroke-width="6.875" stroke-miterlimit="8" fill="none" fill-rule="evenodd"/><path d="M1112.5 660C1112.5 648.126 1122.13 638.5 1134 638.5L1481 638.5C1492.87 638.5 1502.5 648.126 1502.5 660L1502.5 746C1502.5 757.874 1492.87 767.5 1481 767.5L1134 767.5C1122.13 767.5 1112.5 757.874 1112.5 746Z" stroke="#042433" stroke-width="6.875" stroke-miterlimit="8" fill="none" fill-rule="evenodd"/><path d="M1112.5 1389C1112.5 1377.13 1122.13 1367.5 1134 1367.5L1481 1367.5C1492.87 1367.5 1502.5 1377.13 1502.5 1389L1502.5 1475C1502.5 1486.87 1492.87 1496.5 1481 1496.5L1134 1496.5C1122.13 1496.5 1112.5 1486.87 1112.5 1475Z" stroke="#042433" stroke-width="6.875" stroke-miterlimit="8" fill="none" fill-rule="evenodd"/><path d="M2949.5 657.834C2949.5 647.156 2958.16 638.5 2968.83 638.5L3319.17 638.5C3329.84 638.5 3338.5 647.156 3338.5 657.834L3338.5 735.166C3338.5 745.844 3329.84 754.5 3319.17 754.5L2968.83 754.5C2958.16 754.5 2949.5 745.844 2949.5 735.166Z" stroke="#042433" stroke-width="6.875" stroke-miterlimit="8" fill="none" fill-rule="evenodd"/><path d="M2949.5 787.667C2949.5 777.082 2958.08 768.5 2968.67 768.5L3319.33 768.5C3329.92 768.5 3338.5 777.082 3338.5 787.667L3338.5 864.333C3338.5 874.919 3329.92 883.5 3319.33 883.5L2968.67 883.5C2958.08 883.5 2949.5 874.919 2949.5 864.333Z" stroke="#042433" stroke-width="6.875" stroke-miterlimit="8" fill="none" fill-rule="evenodd"/><path d="M2526.5 1277.67C2526.5 1267.08 2535.08 1258.5 2545.67 1258.5L2897.33 1258.5C2907.92 1258.5 2916.5 1267.08 2916.5 1277.67L2916.5 1354.33C2916.5 1364.92 2907.92 1373.5 2897.33 1373.5L2545.67 1373.5C2535.08 1373.5 2526.5 1364.92 2526.5 1354.33Z" stroke="#042433" stroke-width="6.875" stroke-miterlimit="8" fill="none" fill-rule="evenodd"/><path d="M2526.5 1400.67C2526.5 1390.08 2535.08 1381.5 2545.67 1381.5L2897.33 1381.5C2907.92 1381.5 2916.5 1390.08 2916.5 1400.67L2916.5 1477.33C2916.5 1487.92 2907.92 1496.5 2897.33 1496.5L2545.67 1496.5C2535.08 1496.5 2526.5 1487.92 2526.5 1477.33Z" stroke="#042433" stroke-width="6.875" stroke-miterlimit="8" fill="none" fill-rule="evenodd"/><path d="M2949.5 1277.67C2949.5 1267.08 2958.08 1258.5 2968.67 1258.5L3319.33 1258.5C3329.92 1258.5 3338.5 1267.08 3338.5 1277.67L3338.5 1354.33C3338.5 1364.92 3329.92 1373.5 3319.33 1373.5L2968.67 1373.5C2958.08 1373.5 2949.5 1364.92 2949.5 1354.33Z" stroke="#042433" stroke-width="6.875" stroke-miterlimit="8" fill="none" fill-rule="evenodd"/><path d="M2949.5 1400.67C2949.5 1390.08 2958.08 1381.5 2968.67 1381.5L3319.33 1381.5C3329.92 1381.5 3338.5 1390.08 3338.5 1400.67L3338.5 1477.33C3338.5 1487.92 3329.92 1496.5 3319.33 1496.5L2968.67 1496.5C2958.08 1496.5 2949.5 1487.92 2949.5 1477.33Z" stroke="#042433" stroke-width="6.875" stroke-miterlimit="8" fill="none" fill-rule="evenodd"/></g></svg>